<svg id="Layer_1" enable-background="new 0 0 512 512" height="512" viewBox="0 0 512 512" width="512" xmlns="http://www.w3.org/2000/svg"><g><path d="m26.597 182.831h458.806l.997.676c-34.144-94.203-124.408-161.512-230.4-161.512-105.95 0-196.186 67.256-230.361 161.401z" fill="#816ae2"/><circle cx="256" cy="266.998" fill="#816ae2" r="245.002"/><path d="m499.201 296.744c1.18-9.752 1.802-19.676 1.802-29.746 0-30.327-5.525-59.36-15.599-86.167-49.795-73.477-133.958-121.767-229.404-121.767s-179.609 48.29-229.403 121.767c-10.074 26.807-15.599 55.84-15.599 86.167 0 10.069.621 19.992 1.801 29.742z" fill="#9bd8f9"/><path d="m19.348 330.583c28.004 104.481 123.336 181.417 236.652 181.417 113.324 0 208.661-76.946 236.657-181.438-2.885-128.232-107.73-231.297-236.654-231.297-128.931 0-233.781 103.077-236.655 231.318z" fill="#4fabf7"/><path d="m403.151 212.315c34.993 11.614 64.73 27.233 86.848 45.657.963 2.89 1.87 5.806 2.728 8.742-29.938-102.47-124.583-177.332-236.727-177.332 62.839 0 117.71 49.43 147.151 122.933z" fill="#4fabf7"/><path d="m108.85 212.315c29.44-73.503 84.312-122.933 147.15-122.933-112.136 0-206.777 74.852-236.72 177.313.857-2.93 1.761-5.839 2.722-8.723 22.117-18.423 51.854-34.042 86.848-45.657z" fill="#4fabf7"/><path d="m491.138 335.988c3.808-13 6.564-26.446 8.177-40.244-2.109-12.828-5.218-25.469-9.317-37.771-22.118-18.424-51.854-34.043-86.848-45.657 14.562 36.357 22.907 78.6 22.907 123.672z" fill="#73c3f9"/><path d="m12.685 295.74c1.613 13.799 4.369 27.247 8.178 40.248h65.08c0-45.072 8.345-87.315 22.907-123.672-34.993 11.614-64.73 27.233-86.847 45.657-4.099 12.297-7.209 24.935-9.318 37.767z" fill="#1e9ef4"/><path d="m108.85 212.315c27.484-9.122 58.213-15.766 91.08-19.334 12.477-62.707 32.94-103.599 56.07-103.599-62.838 0-117.71 49.43-147.15 122.933z" fill="#1e9ef4"/><path d="m312.071 192.981c32.866 3.569 63.596 10.212 91.08 19.334-29.441-73.503-84.312-122.933-147.151-122.933 23.13 0 43.593 40.892 56.071 103.599z" fill="#73c3f9"/><path d="m187.182 335.987c0-53.313 4.722-102.672 12.747-143.006-32.866 3.569-63.596 10.212-91.08 19.334-14.562 36.357-22.907 78.6-22.907 123.672z" fill="#4fabf7"/><path d="m324.818 335.988h101.24c0-45.072-8.345-87.314-22.907-123.672-27.484-9.122-58.213-15.766-91.08-19.334 8.025 40.334 12.747 89.693 12.747 143.006z" fill="#4fabf7"/><path d="m199.929 192.981c18.11-1.966 36.857-3.012 56.071-3.012s37.961 1.046 56.071 3.012c-12.478-62.707-32.941-103.599-56.071-103.599s-43.593 40.892-56.071 103.599z" fill="#4fabf7"/><path d="m187.182 335.988h137.636c0-53.313-4.722-102.671-12.747-143.006-18.11-1.966-36.857-3.012-56.071-3.012s-37.96 1.046-56.071 3.012c-8.025 40.333-12.747 89.693-12.747 143.006z" fill="#73c3f9"/><g fill="#4fabf7"><path d="m20.862 335.988c14.119 48.199 42.649 90.235 80.615 121.13 2.433.865 4.885 1.716 7.372 2.542-14.562-36.357-22.907-78.6-22.907-123.672z"/><path d="m426.057 335.988c0 45.072-8.345 87.315-22.907 123.672 2.486-.825 4.939-1.676 7.371-2.542 37.967-30.896 66.496-72.931 80.616-121.13z"/><path d="m199.929 478.994c-32.866-3.568-63.596-10.212-91.08-19.334.627 1.565 1.269 3.114 1.919 4.657 27.942 20.601 60.409 35.417 95.645 42.66-2.346-8.735-4.515-18.086-6.484-27.983z"/><path d="m305.587 506.977c35.236-7.243 67.703-22.059 95.645-42.66.649-1.543 1.292-3.092 1.919-4.657-27.484 9.122-58.213 15.766-91.08 19.334-1.969 9.897-4.138 19.248-6.484 27.983z"/></g><path d="m312.071 478.994c32.867-3.568 63.596-10.212 91.08-19.335 14.562-36.357 22.907-78.6 22.907-123.672h-101.24c0 53.313-4.722 102.673-12.747 143.007z" fill="#73c3f9"/><path d="m187.182 335.988h-101.24c0 45.072 8.345 87.315 22.907 123.672 27.484 9.122 58.213 15.766 91.08 19.335-8.025-40.335-12.747-89.695-12.747-143.007z" fill="#1e9ef4"/><path d="m199.929 478.994c1.969 9.896 4.138 19.248 6.484 27.982 16.015 3.292 32.599 5.024 49.587 5.024s33.573-1.732 49.587-5.023c2.346-8.735 4.515-18.086 6.484-27.982-18.11 1.966-36.857 3.013-56.071 3.013-19.214-.001-37.961-1.048-56.071-3.014z" fill="#73c3f9"/><path d="m187.182 335.988c0 53.313 4.722 102.672 12.747 143.006 18.11 1.966 36.857 3.013 56.071 3.013s37.961-1.046 56.071-3.013c8.026-40.335 12.747-89.694 12.747-143.006z" fill="#4fabf7"/><path d="m386.4 314.143c-9.509.448-16.824 8.639-16.824 18.158v11.637c0 1.179-1.425 1.769-2.259.935l-68.531-68.531c-6.9-6.9-18.098-6.903-25.002 0l-52.627 52.628c-1.058 1.058-2.773 1.058-3.83 0l-79.727-79.727c-6.731-6.731-17.696-7.35-24.736-.943-7.516 6.841-7.722 18.486-.618 25.591l94.496 94.496c6.904 6.904 18.097 6.904 25.001 0l52.627-52.628c1.058-1.058 2.773-1.058 3.83 0l54.116 54.116c.834.834.243 2.259-.936 2.259h-11.637c-9.519 0-17.71 7.315-18.158 16.824-.478 10.152 7.611 18.534 17.659 18.534l58.01-.001c9.764 0 17.679-7.915 17.679-17.679v-58.01c0-10.048-8.381-18.138-18.533-17.659z" fill="#ff4155"/><g><ellipse cx="253.016" cy="110.177" fill="#ffdd40" rx="110.177" ry="110.177" transform="matrix(.707 -.707 .707 .707 -3.8 211.18)"/><path d="m294.503 8.087c-.001.001-13.695 7.465-4.917 18.913l54.298 75.884s7.513 11.55 19.062 0c-2.811-43.009-30.296-79.28-68.443-94.797z" fill="#ffe98d"/><path d="m323.557 170.637c-.259-1.545-1.59-2.685-3.156-2.64-6.219.181-8.463-3.611-9.273-6.297-.422-1.401-1.73-2.36-3.187-2.229-21.894 1.958-26.211-19.81-26.211-19.81-6.04-19.454-28.713-29.483-28.713-29.483-26.208-7.918-20.282-30.367-20.282-30.367l-2.222-10.426c-15.752-2.515-16.46-15.872-15.978-21.768.121-1.485-.847-2.865-2.29-3.235-6.035-1.545-6.752-6.287-6.532-9.364.107-1.501-.832-2.88-2.285-3.273-7.686-2.076-8.56-8.718-8.371-12.605.041-.832-.258-1.603-.774-2.188-30.909 19.514-51.444 53.97-51.444 93.226 0 60.849 49.328 110.177 110.177 110.177 33.783 0 64.008-15.21 84.219-39.149-.06-.001-.119-.008-.18-.005-10.127.542-12.801-6.417-13.498-10.564z" fill="#ffc839"/><ellipse cx="253.016" cy="110.177" fill="#ffc839" rx="83.177" ry="83.177" transform="matrix(.999 -.055 .055 .999 -5.706 14.161)"/><path d="m169.839 110.177c0 45.864 37.313 83.177 83.177 83.177 24.223 0 46.055-10.414 61.271-26.994-1.8-1.306-2.705-3.157-3.159-4.661-.422-1.401-1.73-2.36-3.187-2.229-21.894 1.958-26.211-19.81-26.211-19.81-6.04-19.454-28.713-29.483-28.713-29.483-26.208-7.918-20.282-30.367-20.282-30.367l-2.222-10.426c-15.752-2.515-16.46-15.872-15.978-21.768.121-1.485-.847-2.865-2.29-3.235-2.64-.676-4.263-1.964-5.234-3.457-22.388 14.922-37.172 40.39-37.172 69.253z" fill="#ffb332"/><g><path d="m253.016 201.046c-50.105 0-90.868-40.764-90.868-90.868 0-50.105 40.764-90.869 90.868-90.869 50.105 0 90.869 40.764 90.869 90.869s-40.764 90.868-90.869 90.868zm0-166.355c-41.623 0-75.486 33.863-75.486 75.487 0 41.623 33.863 75.486 75.486 75.486s75.486-33.863 75.486-75.486c0-41.624-33.863-75.487-75.486-75.487z" fill="#ffb332"/></g><g fill="#ff9100"><path d="m253.016 201.046c27.823 0 52.761-12.574 69.443-32.333-.56-.468-1.279-.739-2.058-.717-6.219.181-8.463-3.611-9.273-6.297-.233-.773-.741-1.402-1.39-1.797-13.845 15.774-34.134 25.761-56.723 25.761-41.623 0-75.486-33.863-75.486-75.486 0-27.347 14.619-51.344 36.452-64.587-.407-.581-1.012-1.022-1.737-1.209-6.035-1.545-6.752-6.287-6.532-9.364.053-.749-.154-1.469-.556-2.049-25.797 16.049-43.009 44.655-43.009 77.209.001 50.106 40.764 90.869 90.869 90.869z"/><path d="m264.37 106.232c-1.308-.463-2.512-.901-3.662-1.327v-30.207c3.084.497 5.503 1.619 9.258 4.076 3.553 2.325 8.321 1.329 10.646-2.226s1.329-8.322-2.226-10.647c-6.694-4.379-11.592-6.087-17.678-6.676v-3.397c0-4.248-3.443-7.691-7.691-7.691s-7.691 3.444-7.691 7.691v4.125c-26.236 6.906-31.232 44.425-3.664 54.17 1.31.463 2.513.901 3.664 1.327v30.207c-3.083-.497-5.505-1.62-9.259-4.076-3.554-2.325-8.322-1.328-10.646 2.226-2.325 3.555-1.329 8.322 2.226 10.647 6.697 4.381 11.59 6.093 17.679 6.681v3.392c0 4.248 3.443 7.691 7.691 7.691s7.691-3.443 7.691-7.691v-4.125c26.15-6.883 31.325-44.392 3.662-54.17zm-19.045-29.706v22.498c-10.052-4.612-7.975-17.463 0-22.498zm15.382 67.302v-22.498c10.049 4.611 7.978 17.462 0 22.498z"/></g></g><path d="m246.021 304.105-24.865 24.865c-1.058 1.058-2.773 1.058-3.83 0l-79.727-79.727c-6.731-6.731-17.696-7.35-24.736-.943-7.516 6.841-7.722 18.486-.618 25.591l94.496 94.496c6.904 6.904 18.097 6.904 25.001 0l38.281-38.281c-29.978 0-24.002-26.001-24.002-26.001z" fill="#e80054"/></g></svg>